<?xml version="1.0" standalone="no"?>
<!DOCTYPE svg PUBLIC "-//W3C//DTD SVG 20010904//EN"
 "http://www.w3.org/TR/2001/REC-SVG-20010904/DTD/svg10.dtd">
<svg version="1.0" xmlns="http://www.w3.org/2000/svg"
 width="900.000000pt" height="807.000000pt" viewBox="0 0 900.000000 807.000000"
 preserveAspectRatio="xMidYMid meet">
<metadata>
Created by potrace 1.10, written by Peter Selinger 2001-2011
</metadata>
<g transform="translate(0.000000,807.000000) scale(0.100000,-0.100000)"
fill="#000000" stroke="none">
<path d="M2365 6790 c-345 -51 -626 -197 -880 -454 -55 -56 -113 -122 -130
-146 -16 -25 -33 -46 -37 -48 -5 -2 -8 -8 -8 -12 0 -5 -12 -26 -26 -47 -48
-71 -127 -246 -155 -343 -50 -171 -61 -254 -62 -460 -1 -162 2 -222 16 -285
23 -101 45 -181 63 -223 8 -18 14 -38 14 -46 0 -7 14 -39 30 -71 17 -32 30
-62 30 -67 0 -11 57 -103 97 -158 18 -25 43 -58 55 -75 39 -54 186 -194 268
-255 96 -70 313 -180 358 -180 12 0 23 -4 27 -9 3 -6 27 -13 53 -17 26 -3 56
-12 67 -18 14 -8 385 -13 1310 -17 1129 -5 1301 -8 1375 -22 95 -18 152 -35
225 -67 81 -35 88 -39 120 -60 17 -11 37 -23 45 -27 25 -11 131 -102 190 -162
53 -53 160 -193 160 -208 0 -3 6 -14 13 -22 25 -29 87 -186 119 -301 19 -65
22 -102 22 -285 0 -174 -3 -220 -18 -270 -24 -83 -54 -172 -65 -193 -4 -9 -16
-35 -27 -57 -37 -82 -201 -305 -223 -305 -3 0 -22 -14 -41 -31 -100 -92 -277
-184 -425 -222 -146 -38 -167 -38 -1709 -35 l-1508 3 -20 55 c-25 67 -50 96
-105 121 -111 51 -243 -12 -283 -134 -18 -58 -9 -152 22 -218 33 -68 108 -140
185 -176 l58 -27 695 -7 c1140 -11 2471 -10 2552 2 110 16 219 39 256 55 18 8
39 14 47 14 27 0 193 78 295 139 156 93 284 203 391 336 138 171 231 361 285
580 24 98 47 283 47 385 1 133 -35 361 -74 470 -110 313 -251 522 -483 715
-27 22 -65 51 -85 65 -20 14 -37 28 -39 33 -2 4 -7 7 -12 7 -5 0 -41 19 -82
43 -145 85 -298 139 -482 170 -38 6 -540 12 -1341 16 -704 3 -1285 9 -1291 13
-6 4 -36 14 -65 22 -89 24 -184 63 -234 96 -16 11 -37 23 -45 27 -22 10 -89
62 -138 108 -125 116 -241 329 -272 500 -5 28 -14 73 -19 100 -12 61 -13 292
-1 360 28 163 46 217 115 355 56 112 107 183 195 270 91 90 128 119 225 176
53 32 166 82 220 98 33 10 74 23 90 29 22 9 390 13 1409 15 l1379 2 24 -22
c17 -16 23 -32 23 -67 0 -71 39 -144 92 -175 105 -61 226 -8 277 122 69 175
-40 410 -233 501 l-66 31 -1403 -1 c-771 -1 -1424 -5 -1452 -9z"/>
<path d="M6567 6793 c-4 -3 -7 -98 -7 -210 l0 -203 -242 0 c-134 0 -253 -3
-265 -6 l-23 -6 0 -248 c0 -202 -3 -250 -14 -259 -11 -9 -83 -12 -258 -10
l-243 2 -6 -269 c-5 -176 -3 -273 3 -281 8 -10 72 -13 259 -13 137 0 250 -1
251 -2 1 -2 4 -118 7 -258 l6 -255 262 -3 263 -2 2 -243 3 -242 70 -3 c38 -2
74 -7 80 -12 14 -11 14 -2188 0 -2212 -5 -9 -161 -171 -346 -360 -471 -482
-496 -509 -513 -549 -19 -45 -7 -96 33 -141 22 -25 37 -32 79 -36 28 -2 62 -2
75 2 36 9 926 904 957 963 24 46 25 56 30 284 l5 236 45 48 c25 27 84 89 131
139 48 50 106 113 129 140 23 28 61 69 84 92 22 23 117 123 209 221 l169 180
58 6 c101 11 194 78 242 175 20 41 23 62 23 157 0 96 -3 115 -23 152 -36 66
-95 126 -153 158 -47 25 -62 28 -138 28 -106 -1 -156 -21 -230 -93 -81 -81
-96 -117 -96 -235 0 -91 3 -105 28 -149 31 -55 32 -50 -43 -127 -25 -26 -103
-111 -175 -189 -210 -231 -242 -263 -253 -256 -8 5 -11 204 -9 689 l2 682 48
3 c26 2 48 4 49 5 1 1 5 110 8 242 l5 240 244 3 c160 1 249 6 258 13 10 9 13
65 13 260 l0 249 243 0 c133 0 248 4 256 9 12 8 14 54 12 273 -1 145 -5 266
-9 270 -4 3 -113 8 -242 10 -129 2 -241 7 -247 11 -10 6 -13 68 -13 251 0 175
-3 245 -12 254 -9 9 -80 12 -260 12 l-248 0 -2 208 -3 207 -281 3 c-154 1
-283 -1 -287 -5z m557 -439 c3 -9 6 -120 6 -249 0 -185 -3 -235 -14 -244 -9
-8 -92 -11 -282 -9 l-269 3 -3 258 -2 257 279 0 c245 0 280 -2 285 -16z m-564
-778 l0 -275 -42 -6 c-24 -4 -139 -5 -256 -3 -176 2 -214 6 -222 18 -15 23
-13 513 2 528 9 9 82 12 265 12 l253 0 0 -274z m1098 5 c1 -161 -1 -268 -7
-274 -10 -10 -456 -17 -493 -9 -17 4 -18 25 -18 271 0 147 3 271 7 275 4 3
119 5 257 4 l251 -3 3 -264z m-530 -535 c2 -167 -1 -243 -9 -252 -9 -11 -64
-14 -279 -14 -235 0 -269 2 -274 16 -3 9 -6 123 -6 255 l0 239 283 -2 282 -3
3 -239z"/>
<path d="M2415 5791 c-147 -39 -237 -125 -309 -294 -22 -53 -22 -215 1 -277
18 -49 73 -141 101 -169 136 -137 353 -168 517 -76 61 34 129 97 157 145 12
19 28 41 36 48 12 9 164 12 682 12 586 0 668 -2 688 -16 12 -8 22 -20 22 -25
0 -20 72 -104 117 -136 65 -46 174 -83 246 -83 160 0 313 98 387 247 33 66 34
72 34 193 1 123 0 127 -33 193 -39 82 -127 175 -191 204 -152 69 -241 69 -390
0 -55 -26 -149 -118 -176 -172 l-19 -40 -670 -3 c-368 -1 -679 0 -690 2 -11 3
-29 24 -39 47 -22 45 -116 137 -168 164 -52 27 -159 55 -203 54 -22 -1 -67 -9
-100 -18z m177 -322 c52 -42 67 -94 44 -151 -22 -57 -56 -80 -116 -80 -135 0
-180 173 -63 244 45 27 93 23 135 -13z m2131 17 c47 -19 69 -49 74 -100 10
-84 -17 -127 -90 -147 -76 -20 -157 45 -157 126 0 48 33 102 74 120 41 18 60
18 99 1z"/>
<path d="M1490 3146 c-164 -38 -292 -161 -337 -326 -16 -58 -16 -167 -1 -227
16 -62 63 -135 130 -199 107 -103 248 -145 373 -109 126 36 193 82 260 181 22
33 44 62 50 66 5 4 525 8 1155 8 l1146 0 42 -64 c77 -118 186 -187 318 -202
145 -17 354 102 410 235 46 106 57 198 34 290 -24 99 -66 175 -131 235 -55 51
-152 106 -188 106 -10 0 -32 5 -48 11 -49 17 -184 -15 -269 -64 -27 -16 -124
-109 -124 -120 0 -4 -10 -21 -22 -37 l-22 -30 -1137 0 c-688 0 -1147 4 -1162
9 -14 6 -28 20 -32 32 -11 35 -129 144 -182 169 -87 42 -181 55 -263 36z m152
-329 c15 -12 34 -39 43 -59 13 -33 13 -43 1 -79 -22 -64 -81 -95 -152 -79 -46
11 -68 31 -84 81 -28 83 27 158 115 158 37 0 57 -6 77 -22z m3089 0 c29 -24
59 -76 59 -102 0 -29 -38 -91 -66 -105 -41 -23 -120 -17 -150 11 -57 54 -52
159 10 199 43 27 113 26 147 -3z"/>
</g>
</svg>
